<?xml version="1.0" encoding="UTF-8" standalone="no"?>
<svg xmlns:dc="http://purl.org/dc/elements/1.1/" xmlns:cc="http://creativecommons.org/ns#" xmlns:rdf="http://www.w3.org/1999/02/22-rdf-syntax-ns#" xmlns:svg="http://www.w3.org/2000/svg" xmlns="http://www.w3.org/2000/svg" viewBox="269 259 622.5197 293.70081" height="75" width="225" xml:space="preserve" id="svg2" version="1.1">
    <metadata
     id="metadata8"><rdf:RDF><cc:Work
         rdf:about=""><dc:format>image/svg+xml</dc:format><dc:type
           rdf:resource="http://purl.org/dc/dcmitype/StillImage" /></cc:Work></rdf:RDF></metadata><defs
     id="defs6" /><g
     transform="matrix(1.3333333,0,0,-1.3333333,0,793.7008)"
     id="g10"><path
       id="path12"
       style="fill:#0066ba;fill-opacity:1;fill-rule:evenodd;stroke:none"
       d="m 117.6982,374.6117 h 112.9209 c 5.4162,0 9.8479,-4.4311 9.8479,-9.8478 V 230.3408 c 0,-5.4168 -4.4317,-9.8482 -9.8479,-9.8482 H 117.6982 c -5.4159,0 -9.8476,4.4314 -9.8476,9.8482 v 134.4231 c 0,5.4167 4.4317,9.8478 9.8476,9.8478" /><path
       id="path14"
       style="fill:#003399;fill-opacity:1;fill-rule:evenodd;stroke:none"
       d="m 120.6051,370.9383 h 106.8676 c 5.1259,0 9.32,-4.1935 9.32,-9.32 V 234.4011 c 0,-5.1265 -4.1941,-9.32 -9.32,-9.32 H 120.6051 c -5.1256,0 -9.3197,4.1935 -9.3197,9.32 v 127.2172 c 0,5.1265 4.1941,9.32 9.3197,9.32" /><path
       id="path16"
       style="fill:#003399;fill-opacity:1;fill-rule:nonzero;stroke:none"
       d="m 273.1014,366.1736 c 7.6354,0 13.5839,-2.2533 17.833,-6.747 4.4294,-4.6353 6.6442,-11.1762 6.6442,-19.6229 0,-8.4725 -2.2148,-15.052 -6.6442,-19.739 -4.2233,-4.4938 -10.1205,-6.7471 -17.6916,-6.7471 -8.073,0 -14.1894,2.3692 -18.3739,7.0946 -4.1717,4.7514 -6.2577,11.3698 -6.2577,19.8419 0,8.0992 2.2147,14.4856 6.6441,19.1725 4.146,4.4163 10.0945,6.6699 17.8461,6.747 z m -0.2319,-2.5623 c -6.4893,0 -11.3567,-2.3692 -14.6012,-7.0948 -2.8973,-4.1717 -4.3393,-9.631 -4.3393,-16.378 0,-7.2108 1.442,-12.9535 4.3393,-17.2023 3.219,-4.6999 8.2017,-7.056 14.936,-7.056 6.2963,0 11.099,2.2144 14.421,6.6438 3.0903,4.1462 4.6355,9.9017 4.6355,17.2409 0,7.391 -1.5452,13.1337 -4.6355,17.2023 -1.764,2.3176 -3.7854,3.9787 -6.0775,4.983 -2.4205,1.0817 -5.3048,1.6353 -8.6783,1.6611 z m 39.568,-25.0823 v -22.1083 c 0,-0.7855 0.0901,-1.5964 0.2704,-2.4205 h -5.3308 c 0.1803,0.8241 0.2704,1.635 0.2704,2.4205 v 46.6498 c 0,0.7855 -0.0901,1.5837 -0.2704,2.4208 h 11.2408 c 3.219,0 6.0774,-0.5409 8.5753,-1.6226 2.3049,-0.9785 4.159,-2.4463 5.5367,-4.4164 1.5324,-2.1631 2.3048,-4.6224 2.3048,-7.3907 0,-4.0689 -1.3904,-7.2621 -4.1848,-9.5539 -2.7938,-2.3049 -6.8627,-3.6312 -12.232,-3.9787 l 20.1509,-22.7135 c 0.5794,-0.6307 1.3133,-1.2359 2.2275,-1.8153 h -7.3908 c -0.2832,0.6052 -0.7597,1.3006 -1.442,2.073 z m 0,1.957 h 5.1633 c 2.6396,0 5.0474,0.618 7.2105,1.8542 3.5149,2.0344 5.2792,5.176 5.2792,9.4252 0,1.9057 -0.3991,3.6824 -1.2104,5.3177 -0.7985,1.6223 -1.9185,2.9486 -3.3477,3.953 -2.0475,1.4292 -4.9314,2.1503 -8.6785,2.1503 h -4.4164 z m 38.9628,-2.7941 v -21.2454 c 0,-0.7982 0.0901,-1.6222 0.2701,-2.4463 h -5.3306 c 0.1803,0.8241 0.2705,1.6481 0.2705,2.4463 v 46.5466 c 0,0.8113 -0.0902,1.6483 -0.2705,2.4982 h 13.5457 c 3.4506,0 6.5667,-0.7339 9.3608,-2.1889 4.4422,-2.3179 6.6697,-6.0517 6.6697,-11.2023 0,-4.1201 -1.4162,-7.4423 -4.2619,-9.953 -3.2961,-2.9744 -7.9444,-4.4552 -13.9575,-4.4552 z m 0,2.3049 h 6.0386 c 2.9874,0 5.3821,0.3991 7.1592,1.2103 1.9312,0.8499 3.4636,2.189 4.5581,3.9915 1.2104,1.9828 1.8156,4.1848 1.8156,6.6056 0,3.5149 -1.1203,6.296 -3.3735,8.3304 -2.2533,2.0345 -5.3051,3.0518 -9.1806,3.0518 h -7.0174 z m 37.2373,-0.2705 v -23.3056 c 0,-0.7855 0.0901,-1.5964 0.2704,-2.4205 h -5.3308 c 0.1802,0.8241 0.2704,1.635 0.2704,2.4205 v 46.6628 c 0,0.7725 -0.0902,1.5837 -0.2704,2.4078 h 5.3308 c -0.1803,-0.8241 -0.2704,-1.6353 -0.2704,-2.4078 v -21.2842 h 27.3486 v 21.2842 c 0,0.7725 -0.0901,1.5837 -0.2576,2.4078 h 5.3178 c -0.1803,-0.8241 -0.2705,-1.6353 -0.2705,-2.4078 v -46.6628 c 0,-0.7855 0.0902,-1.5964 0.2705,-2.4205 h -5.3178 c 0.1675,0.8241 0.2576,1.635 0.2576,2.4205 v 23.3056 z m 47.9114,-8.2148 -5.6267,-15.5542 c -0.1545,-0.425 -0.2447,-1.0817 -0.2577,-1.9571 h -2.9486 c 0.4249,0.8498 0.7339,1.5064 0.9014,1.9571 l 17.1252,47.9503 c 0.1287,0.3217 0.2447,0.8498 0.3476,1.5837 h 4.3778 c 0.0643,-0.5023 0.1672,-0.9272 0.2962,-1.2878 l 17.7687,-48.2462 c 0.1803,-0.4765 0.5281,-1.133 1.0559,-1.9571 h -5.807 c -0.0516,0.6307 -0.1931,1.2875 -0.4122,1.9571 l -5.6653,15.5542 z m 0.631,2.073 h 19.6229 l -10.0046,26.8594 z m 41.3448,27.3487 v -44.5125 c 0,-0.7855 0.0901,-1.5964 0.2704,-2.4205 h -2.8069 c 0.1803,0.8241 0.2704,1.635 0.2704,2.4205 v 46.6628 c 0,0.7725 -0.0901,1.5837 -0.2704,2.4078 h 5.292 c 0.1287,-0.4765 0.3606,-0.953 0.7209,-1.4293 l 30.8897,-44.0231 v 43.0446 c 0,0.7725 -0.0902,1.5837 -0.2705,2.4078 h 2.8069 c -0.1803,-0.8241 -0.2704,-1.6353 -0.2704,-2.4078 v -46.9329 c 0,-0.9788 0.1159,-1.6997 0.3348,-2.1504 h -4.1848 c -0.1542,0.3991 -0.4763,0.9527 -0.9786,1.6608 z" /><path
       id="path18"
       style="fill:#2491eb;fill-opacity:1;fill-rule:nonzero;stroke:none"
       d="m 535.8229,337.8722 v -21.3868 c 0,-0.876 0.1159,-1.7 0.3347,-2.4852 h -9.3092 c 0.2188,0.6565 0.3347,1.4806 0.3347,2.4852 v 46.5593 c 0,0.8498 -0.1159,1.6611 -0.3347,2.4466 h 15.6571 c 3.5666,0 6.6955,-0.747 9.3867,-2.2278 2.086,-1.1588 3.7341,-2.7425 4.9314,-4.7511 1.2362,-2.0344 1.8542,-4.3521 1.8542,-6.9401 0,-5.7554 -2.7168,-9.6829 -8.1505,-11.7686 -1.4808,-0.5539 -3.3863,-1.0559 -5.7299,-1.5066 l 16.9063,-22.2625 c 0.6951,-0.9014 1.3904,-1.5837 2.073,-2.0344 h -11.2408 c -0.2573,0.7852 -0.6179,1.5194 -1.0944,2.2275 z m -0.0386,2.9486 h 4.0045 c 2.3304,0 4.3393,0.5924 6.0259,1.777 2.7425,1.9571 4.1074,4.8283 4.1074,8.6012 0,3.4892 -1.1588,6.2705 -3.4636,8.3304 -1.6867,1.4812 -4.0431,2.2278 -7.0946,2.2278 h -3.5796 z m 32.705,24.6705 h 26.7047 v -4.1848 c -0.7852,0.2446 -1.5838,0.3733 -2.4206,0.3733 h -15.3481 v -19.6101 h 14.936 c 1.0817,0 2.0217,0.116 2.8327,0.3348 v -4.1848 c -0.6823,0.1548 -1.5965,0.2319 -2.7553,0.2319 h -15.0134 v -20.3054 h 14.8974 c 0.8368,0 1.7898,0.1287 2.8713,0.3733 v -4.5193 h -26.6661 c 0.193,0.7597 0.2962,1.5707 0.2962,2.4463 v 46.5596 c 0,1.0302 -0.1159,1.8542 -0.3348,2.4852 z m 40.4306,-35.3447 -4.97,-13.996 c -0.2319,-0.631 -0.3351,-1.3394 -0.3093,-2.1504 h -4.8671 c 0.4765,0.7597 0.8371,1.4678 1.0559,2.1504 l 16.8676,47.4607 c 0.2188,0.6438 0.3348,1.2748 0.3348,1.88 h 7.5067 c 0.0258,-0.5278 0.1417,-1.0945 0.3475,-1.6997 l 17.3826,-47.641 c 0.2577,-0.6052 0.6696,-1.3263 1.249,-2.1504 h -10.069 c 0,0.6823 -0.1287,1.3904 -0.3863,2.1504 l -4.9315,13.996 z m 1.326,3.7727 h 16.443 l -8.3311,23.2798 z m 72.7365,30.0654 v -6.9401 c -2.2918,1.8669 -4.3263,3.1547 -6.1288,3.8886 -1.8026,0.7339 -3.85,1.0944 -6.1676,1.0944 -5.6268,0 -9.9145,-2.1376 -12.8631,-6.4122 -2.8199,-4.0819 -4.2233,-9.3093 -4.2233,-15.696 0,-6.8242 1.6095,-12.2579 4.8285,-16.3009 3.1416,-4.0045 7.3134,-6.0001 12.5283,-6.0001 2.3048,0 4.352,0.4118 6.129,1.2231 1.764,0.824 3.7338,2.2533 5.897,4.2877 v -6.7856 c -2.4591,-1.1588 -4.661,-1.9701 -6.6053,-2.4208 -1.9313,-0.4507 -4.2103,-0.6823 -6.8242,-0.6823 -7.9446,0 -14.0476,2.2017 -18.2967,6.6053 -4.5454,4.7254 -6.8245,11.4854 -6.8245,20.2539 0,5.5882 0.9273,10.1721 2.7942,13.7389 4.3004,8.2792 12.1422,12.4124 23.5372,12.4124 4.3523,0 8.4211,-0.7597 12.2193,-2.2663 z m 15.9406,-25.2369 v -22.3013 c 0,-0.9011 0.1159,-1.7124 0.3348,-2.4463 h -9.2707 c 0.2188,0.6823 0.3347,1.4936 0.3347,2.4463 v 46.5982 c 0,0.9014 -0.1159,1.7127 -0.3347,2.4466 h 9.2707 c -0.2189,-0.8241 -0.3348,-1.6611 -0.3348,-2.4852 v -20.4857 h 22.6361 v 20.4857 c 0,0.8241 -0.116,1.6611 -0.3348,2.4852 h 9.2704 c -0.2188,-0.7339 -0.3345,-1.5452 -0.3345,-2.4466 v -46.5982 c 0,-0.9011 0.1157,-1.7124 0.3345,-2.4463 h -9.2704 c 0.2188,0.7339 0.3348,1.5452 0.3348,2.4463 v 22.3013 z" /><path
       id="path20"
       style="fill:#2491eb;fill-opacity:1;fill-rule:nonzero;stroke:none"
       d="m 259.0061,299.1135 v -22.7132 c 0,-0.4008 0.0459,-0.8146 0.1381,-1.235 h -1.4324 c 0.0921,0.4204 0.1381,0.8342 0.1381,1.235 v 23.8102 c 0,0.3943 -0.046,0.8082 -0.1381,1.2288 h 2.7003 c 0.0658,-0.2432 0.184,-0.4864 0.3679,-0.7293 l 15.7621,-22.4634 v 21.9639 c 0,0.3943 -0.0462,0.8082 -0.1381,1.2288 h 1.4324 c -0.0921,-0.4206 -0.1381,-0.8345 -0.1381,-1.2288 v -23.9482 c 0,-0.4992 0.059,-0.8671 0.1707,-1.097 h -2.1354 c -0.0785,0.2035 -0.2429,0.4861 -0.4991,0.8473 z m 77.436,2.3258 h 12.227 v -1.3665 c -0.3745,0.1247 -0.7555,0.1904 -1.1563,0.1904 h -8.4886 v -11.084 h 8.1995 c 0.5386,0 1.0315,0.0658 1.4652,0.1905 v -1.3467 c -0.3484,0.0657 -0.8215,0.0986 -1.4258,0.0986 h -8.2389 v -11.649 h 8.2584 c 0.2039,0.0134 0.677,0.0788 1.4063,0.1905 v -1.4978 h -12.2074 c 0.0655,0.4337 0.0984,0.8473 0.0984,1.2285 v 23.7906 c 0,0.5256 -0.0459,0.946 -0.1378,1.2549 z m 65.8528,0 h 18.1928 v -1.4785 c -0.7164,0.112 -1.2878,0.1709 -1.715,0.1709 h -6.1036 v -23.7314 c 0,-0.4008 0.046,-0.8146 0.1378,-1.235 h -2.7133 c 0.0853,0.4204 0.1315,0.8342 0.1315,1.235 v 23.7314 h -6.2943 c -0.5125,0 -1.0579,-0.0589 -1.6359,-0.1709 z m 87.1991,-2.8119 -6.1957,-22.4635 c -0.0524,-0.1644 -0.1117,-0.4994 -0.1706,-0.9986 h -2.3327 c 0,0.4337 -0.0524,0.8801 -0.1511,1.3269 l -6.1823,23.8498 c -0.0987,0.3615 -0.2104,0.7226 -0.3286,1.0973 h 2.5229 c 0,-0.0396 0,-0.0657 0,-0.079 0,-0.0854 0.0592,-0.3547 0.1709,-0.8079 l 5.8343,-22.4241 6.1234,22.1939 c 0.0983,0.4008 0.1511,0.69 0.1511,0.8674 0,0.0524 -0.007,0.1315 -0.0131,0.2497 h 2.4636 c 0,-0.0657 0,-0.1119 0,-0.1315 0,-0.2103 0.0527,-0.4927 0.1514,-0.8475 l 6.3728,-22.332 5.7555,22.332 c 0.0986,0.4073 0.1511,0.7358 0.1511,0.979 h 1.3666 c -0.0394,-0.151 -0.1381,-0.4796 -0.3087,-0.979 l -6.2944,-24.2964 c -0.0524,-0.2038 -0.1182,-0.5388 -0.21,-0.9986 h -2.3457 c -0.013,0.4138 -0.0853,0.8541 -0.2168,1.3269 z m 82.127,3.16 c 3.8963,0 6.9316,-1.1497 9.0998,-3.4426 2.2601,-2.3653 3.3903,-5.7031 3.3903,-10.0131 0,-4.3232 -1.1302,-7.6805 -3.3903,-10.0718 -2.1552,-2.2933 -5.1641,-3.443 -9.0275,-3.443 -4.1193,0 -7.2402,1.209 -9.3756,3.6201 -2.1288,2.4245 -3.1932,5.8017 -3.1932,10.1248 0,4.1327 1.1302,7.3914 3.3902,9.783 2.1158,2.2535 5.1512,3.4032 9.1063,3.4426 z m -0.1182,-1.3073 c -3.3114,0 -5.7948,-1.209 -7.4505,-3.6204 -1.4783,-2.1286 -2.2142,-4.9144 -2.2142,-8.3571 0,-3.6794 0.7359,-6.6096 2.2142,-8.7778 1.6426,-2.3981 4.185,-3.6003 7.6215,-3.6003 3.2128,0 5.6633,1.1299 7.3584,3.3903 1.5769,2.1155 2.3652,5.0522 2.3652,8.7973 0,3.7712 -0.7883,6.7014 -2.3652,8.7778 -0.9,1.1826 -1.9315,2.0301 -3.1011,2.5426 -1.2353,0.5519 -2.7071,0.8343 -4.4283,0.8476 z m 72.5874,-12.7987 v -11.2811 c 0,-0.4008 0.0459,-0.8146 0.1377,-1.235 h -2.7201 c 0.0921,0.4204 0.1381,0.8342 0.1381,1.235 v 23.8037 c 0,0.4008 -0.046,0.8082 -0.1381,1.2353 h 5.7359 c 1.6424,0 3.1011,-0.2761 4.3756,-0.828 1.1761,-0.4991 2.1223,-1.2483 2.8253,-2.2535 0.7818,-1.1038 1.1761,-2.3587 1.1761,-3.7712 0,-2.0761 -0.7096,-3.7057 -2.1354,-4.875 -1.4258,-1.1761 -3.5019,-1.8528 -6.2416,-2.0302 l 10.2821,-11.5897 c 0.296,-0.3221 0.6704,-0.631 1.1367,-0.9264 h -3.7712 c -0.1446,0.3087 -0.3875,0.6636 -0.7359,1.0576 z m 0,0.9986 h 2.6345 c 1.3467,0 2.5756,0.3152 3.6794,0.9462 1.7934,1.0378 2.6937,2.6411 2.6937,4.8093 0,0.9723 -0.2038,1.8791 -0.6176,2.7133 -0.4074,0.828 -0.9791,1.5046 -1.7085,2.0172 -1.0446,0.7293 -2.5163,1.0972 -4.428,1.0972 h -2.2535 z m 72.2781,-0.3679 v -11.9118 c 0,-0.4008 0.0459,-0.8146 0.138,-1.235 h -2.7201 c 0.0921,0.4204 0.138,0.8342 0.138,1.235 v 23.8102 c 0,0.3943 -0.0459,0.8082 -0.138,1.2288 h 2.7201 c -0.0921,-0.4206 -0.138,-0.8345 -0.138,-1.2288 v -10.3807 l 9.4677,10.9326 c 0.1839,0.2237 0.3285,0.4468 0.4467,0.6769 h 1.787 c -0.4334,-0.335 -0.7294,-0.5916 -0.887,-0.7687 l -9.1389,-10.624 11.8395,-13.9221 c 0.381,-0.46 0.7095,-0.782 0.9788,-0.9592 h -3.5807 c -0.0987,0.2954 -0.2693,0.5845 -0.4992,0.8671 z" /><path
       id="path22"
       style="fill:#f20066;fill-opacity:1;fill-rule:nonzero;stroke:none"
       d="m 413.7537,240.41 c 0,-1.3595 -0.489,-2.6238 -1.467,-3.7925 -1.3833,-1.6696 -3.2317,-2.874 -5.5454,-3.6136 -1.7172,-0.5485 -3.3871,-0.8229 -5.0088,-0.8229 -0.5964,0 -1.1809,0.036 -1.7532,0.1074 -3.7449,0.4771 -6.9171,1.3 -9.5171,2.4687 -2.3612,-1.741 -4.8537,-2.6118 -7.4775,-2.6118 -3.1005,0 -5.0207,0.8586 -5.76,2.5761 -0.1672,0.4054 -0.2506,0.8824 -0.2506,1.4312 0,0.5485 0.2744,1.1328 0.8229,1.753 0.8587,0.9541 2.0512,1.4312 3.5779,1.4312 1.0018,0 1.908,-0.1432 2.719,-0.4295 0.811,-0.2863 1.8128,-0.7514 3.0053,-1.3952 1.1925,-0.644 2.0753,-1.1092 2.6476,-1.3955 1.0494,1.0256 2.1347,2.4509 3.2558,4.2755 1.1211,1.8247 2.1051,3.6136 2.9518,5.3669 0.8467,1.7529 1.9258,3.7029 3.2377,5.8495 1.3119,2.1467 2.6476,3.9714 4.007,5.474 l 2.0396,2.3256 c -1.8845,0.3339 -3.9595,0.5008 -6.2255,0.5008 -2.266,0 -4.7582,-0.2982 -7.4775,-0.8943 -3.7207,-0.7872 -6.5832,-2.3853 -8.5867,-4.7942 -1.2163,-1.455 -1.8247,-2.8386 -1.8247,-4.1502 0,-1.7413 0.8468,-2.8744 2.5405,-3.3991 0.5961,-0.1669 1.1208,-0.2502 1.574,-0.2502 0.4533,0 0.978,0.0833 1.5741,0.2502 0.5964,0.167 1.175,0.5188 1.7354,1.0554 0.5604,0.5369 0.966,1.0556 1.2163,1.5565 0.2506,0.5009 0.3759,0.8765 0.3759,1.127 0,0.2503 0.1191,0.3756 0.3577,0.3756 0.2384,-0.0238 0.3697,-0.1907 0.3935,-0.5008 v -0.0358 c -0.2622,-1.7413 -1.1926,-3.0651 -2.7907,-3.9713 -0.978,-0.5247 -1.9559,-0.7872 -2.9336,-0.7872 l -1.8607,0.322 c -2.5282,0.8825 -3.7924,2.5283 -3.7924,4.9374 0,1.6455 0.7276,3.2675 2.1826,4.8657 2.3375,2.6237 5.7722,4.2576 10.304,4.9017 2.1943,0.3098 4.4782,0.4648 6.8513,0.4648 2.3735,0 4.7883,-0.2622 7.2451,-0.7869 0.6678,0.5724 1.2523,0.9542 1.7532,1.145 0.5009,0.1907 0.7932,0.286 0.8765,0.286 0.0833,0 0.1372,-0.0119 0.161,-0.0357 0.1431,0 0.1729,-0.0774 0.0896,-0.2325 -0.0836,-0.155 -0.3461,-0.3759 -0.7872,-0.6619 -0.4414,-0.2863 -0.7098,-0.5485 -0.805,-0.7872 3.2436,-0.8348 5.5814,-2.0273 7.0123,-3.5778 0.7634,-0.8587 1.1449,-1.7351 1.1449,-2.6295 0,-0.8946 -0.2625,-1.7949 -0.7872,-2.7014 -0.6916,-1.1925 -1.8127,-2.0928 -3.363,-2.7011 -1.5503,-0.6083 -3.1127,-0.9482 -4.6868,-1.0196 1.5265,-0.4771 2.9458,-1.1449 4.2574,-2.0038 1.8606,-1.2164 2.7907,-2.8381 2.7907,-4.8657 z m -12.5224,-7.2272 c 2.6717,0 4.9374,0.7633 6.7981,2.2898 2.0273,1.622 3.041,3.3752 3.041,5.2594 0,1.9559 -1.0375,3.4347 -3.1127,4.4365 -0.7631,0.3577 -1.6994,0.7095 -2.8086,1.0553 -1.1089,0.3459 -2.0035,0.6381 -2.6833,0.8768 -0.6797,0.2384 -1.0672,0.4652 -1.1627,0.6797 0,0.4533 0.3458,0.6917 1.0374,0.7155 0.4533,0 1.1449,-0.0357 2.0753,-0.1071 0.93,-0.0718 1.7291,-0.1015 2.397,-0.0896 0.6678,0.0119 1.4728,0.2503 2.4151,0.7155 0.9422,0.4651 1.7472,1.0675 2.4151,1.8068 1.0732,1.1925 1.6098,2.3136 1.6098,3.363 0,2.2422 -2.0988,3.8523 -6.2969,4.8302 -1.264,-1.7413 -3.53,-5.4204 -6.7978,-11.0375 -3.2675,-5.6172 -5.7841,-9.3799 -7.5492,-11.2879 l -1.3595,-1.288 c 2.6955,-1.1211 5.5933,-1.8366 8.6942,-2.1467 0.4532,-0.0476 0.8824,-0.0717 1.2877,-0.0717 z m -12.2717,2.2541 c -2.7907,1.3357 -4.5556,2.1348 -5.2948,2.3972 -0.7396,0.2622 -1.4729,0.3935 -2.2006,0.3935 -0.7273,0 -1.3059,-0.2565 -1.7351,-0.7693 -0.4294,-0.5128 -0.644,-0.978 -0.644,-1.3952 0,-0.4176 0.0952,-0.817 0.2863,-1.1985 0.5247,-1.0735 1.6217,-1.6101 3.2913,-1.6101 2.266,0 4.3651,0.7274 6.2969,2.1824 z m 28.5151,3.6136 c -0.3339,-0.811 -0.5009,-1.7172 -0.5009,-2.719 0,-0.6678 0.1488,-1.1988 0.4471,-1.5922 0.2982,-0.3935 0.7217,-0.5905 1.2702,-0.5905 2.1704,0 4.1383,2.0395 5.9034,6.118 0.1669,0.3819 0.3696,0.5488 0.608,0.5009 0.0955,-0.0238 0.1432,-0.0833 0.1432,-0.1788 0,-0.0953 -0.2682,-0.7215 -0.8051,-1.8783 -0.5366,-1.1568 -1.0791,-2.0931 -1.6276,-2.8086 -1.2167,-1.6696 -2.7193,-2.5044 -4.5082,-2.5044 -0.9539,0 -1.7649,0.3101 -2.4327,0.9301 -0.6679,0.6202 -1.0018,1.4669 -1.0018,2.5404 0,1.0732 0.2563,2.2122 0.769,3.4166 0.5131,1.2047 1.2107,2.3255 2.0931,3.3633 0.8825,1.0375 1.8961,1.7949 3.041,2.2717 0.5486,0.2387 1.0735,0.358 1.5744,0.358 0.5009,0 0.9658,-0.1431 1.3952,-0.4294 0.4057,-0.334 0.6083,-0.7036 0.6083,-1.1092 0,-1.431 -0.8586,-2.8027 -2.5761,-4.1142 -0.5247,-0.4057 -1.264,-0.7694 -2.2181,-1.0914 -0.9541,-0.322 -1.6815,-0.483 -2.1824,-0.483 z m 6.0106,5.7246 c 0,0.4767 -0.1908,0.7154 -0.5723,0.7154 -0.6681,0 -1.6818,-0.8229 -3.0413,-2.4687 -0.811,-1.0017 -1.5265,-2.1228 -2.1467,-3.363 0.4056,0 0.9958,0.1432 1.7711,0.4292 0.7753,0.2863 1.4491,0.6678 2.0214,1.1449 1.3119,1.1211 1.9678,2.3017 1.9678,3.5422 z m 7.7995,-3.0053 c 0.8348,1.0017 1.2524,1.8482 1.2524,2.5401 0,0.6916 -0.2863,1.0375 -0.8586,1.0375 -1.1212,0 -2.3973,-1.0256 -3.8285,-3.077 -0.4533,-0.6441 -0.8944,-1.4905 -1.3238,-2.5402 -0.4292,-1.0493 -0.6437,-1.9975 -0.6437,-2.8442 0,-0.8468 0.1729,-1.5325 0.5187,-2.0571 0.3458,-0.525 0.8824,-0.7872 1.6098,-0.7872 0.7276,0 1.4014,0.1729 2.0214,0.5187 0.6202,0.3458 1.2106,0.8943 1.7711,1.6458 0.5604,0.7512 0.9839,1.3774 1.2702,1.8782 0.2863,0.5009 0.6797,1.2524 1.1806,2.2542 0.167,0.3339 0.3101,0.4711 0.4294,0.4113 0.1191,-0.0596 0.1789,-0.1432 0.1789,-0.2503 0,-0.1075 -0.161,-0.5009 -0.483,-1.1807 -0.322,-0.6797 -0.644,-1.3178 -0.9661,-1.9142 -0.322,-0.5964 -0.7812,-1.2643 -1.3773,-2.0035 -1.0735,-1.3357 -2.5404,-2.0036 -4.4008,-2.0036 -1.3357,0 -2.2958,0.328 -2.8803,0.9839 -0.5842,0.656 -0.8765,1.4131 -0.8765,2.2717 0,1.0497 0.2566,2.1946 0.7694,3.4348 0.5128,1.2404 1.1032,2.3136 1.771,3.2201 1.3834,1.8842 2.9815,2.8265 4.7943,2.8265 0.8824,0 1.5205,-0.209 1.9139,-0.6262 0.3938,-0.4176 0.5905,-0.9003 0.5905,-1.4491 0,-0.811 -0.3339,-1.5026 -1.0018,-2.075 -0.3339,-0.3101 -0.6142,-0.4651 -0.841,-0.4651 -0.2265,0 -0.4232,0.0833 -0.5902,0.2506 z m 13.5955,1.4666 c -0.4294,-0.4292 -1.0374,-1.4012 -1.8246,-2.9157 -0.7872,-1.5148 -1.258,-2.6476 -1.4131,-3.399 -0.155,-0.7512 -0.2327,-1.3595 -0.2327,-1.8247 0,-0.4652 0.1789,-0.6976 0.5366,-0.6976 0.4532,0 1.0139,0.4173 1.6818,1.2521 0.9777,1.2166 1.9437,2.8029 2.8978,4.7585 0.0956,0.2149 0.2027,0.3339 0.3221,0.3577 0.1907,0.0717 0.2863,0 0.2863,-0.2146 0,-0.1193 -0.0358,-0.2622 -0.1075,-0.4294 -2.1943,-4.4362 -4.0427,-6.6546 -5.5454,-6.6546 -0.6916,0 -1.2523,0.3339 -1.6815,1.0017 -0.2149,0.3581 -0.322,0.8348 -0.322,1.4312 0,0.5962 0.119,1.3238 0.3577,2.1824 -1.9083,-3.0767 -3.5541,-4.6153 -4.9374,-4.6153 -0.3815,0 -0.7276,0.1193 -1.0375,0.3577 -0.7157,0.5009 -1.0734,1.3598 -1.0734,2.5761 0,2.3375 1.0136,4.7106 3.041,7.1198 1.1449,1.3357 2.5523,2.2062 4.2219,2.6119 0.4533,0.119 0.8824,0.1788 1.2881,0.1788 1.097,0 2.0273,-0.3815 2.7907,-1.1449 0.2384,-0.2625 0.3101,-0.5128 0.2145,-0.7515 -0.0955,-0.2384 -0.2982,-0.3339 -0.6083,-0.286 -0.2622,0.8586 -0.8348,1.2881 -1.7172,1.2881 -1.0256,0 -2.2898,-0.811 -3.7925,-2.433 -0.8586,-0.9541 -1.6577,-2.0752 -2.3972,-3.363 -0.9301,-1.5506 -1.3952,-2.7907 -1.3952,-3.7211 0,-0.9303 0.2982,-1.3954 0.8946,-1.3954 1.4309,0 3.3032,2.1945 5.6171,6.5831 0.453,0.8827 0.8345,1.4848 1.1446,1.8068 0.3101,0.3221 0.7036,0.4831 1.181,0.4831 0.0952,0 0.3398,-0.0358 0.7333,-0.1072 0.3934,-0.0717 0.6857,-0.0836 0.8764,-0.036 z m 0.3938,-7.6207 c 0,1.0259 0.441,2.2661 1.3238,3.7211 -0.3819,0 -0.489,0.1908 -0.3221,0.5723 l 0.6441,1.2523 c 0.811,1.5503 1.4788,2.8622 2.0035,3.9354 0.2384,0.5012 0.7036,0.7515 1.3952,0.7515 h 2.1824 c -0.8586,-0.6203 -1.7232,-1.8188 -2.5937,-3.5958 -0.8708,-1.7768 -1.5446,-3.1722 -2.0214,-4.1859 -0.477,-1.0137 -0.7157,-1.783 -0.7157,-2.3077 0,-0.5247 0.0895,-0.8943 0.2684,-1.1089 0.1789,-0.2149 0.4232,-0.3223 0.7333,-0.3223 0.4533,0 1.0854,0.4771 1.8964,1.4312 1.264,1.4788 3.041,4.5916 5.3308,9.3379 0.2623,0.5012 0.7274,0.7515 1.3953,0.7515 h 1.9321 c -0.5247,-0.4054 -0.9363,-0.8229 -1.2342,-1.2524 -0.2983,-0.4292 -0.7098,-1.1925 -1.2345,-2.2895 -1.4312,-2.8625 -2.2301,-4.7586 -2.397,-5.6889 -0.0717,-0.3339 -0.1074,-0.644 -0.1074,-0.93 0,-0.7634 0.2624,-1.1688 0.7871,-1.2167 1.2881,0 2.8741,1.9917 4.7586,5.9752 0.1428,0.3339 0.286,0.4649 0.4291,0.3934 0.1432,-0.0717 0.2149,-0.1669 0.2149,-0.2863 0,-0.1193 -0.1074,-0.3934 -0.3223,-0.8229 -0.2146,-0.4294 -0.4232,-0.8467 -0.6259,-1.252 -0.203,-0.4057 -0.5131,-0.9601 -0.9303,-1.664 -0.4173,-0.7035 -0.8051,-1.258 -1.1628,-1.6636 -0.9303,-1.0494 -1.8425,-1.5741 -2.7371,-1.5741 -0.8944,0 -1.5086,0.3935 -1.8426,1.1806 -0.1428,0.3578 -0.2145,0.811 -0.2145,1.3595 0,0.5488 0.1193,1.2286 0.3577,2.0393 -1.741,-3.0529 -3.3511,-4.5794 -4.83,-4.5794 -1.288,0 -2.0392,0.5366 -2.2541,1.6101 -0.0714,0.119 -0.1071,0.2622 -0.1071,0.4291 z m 17.066,-1.3952 c 0.3101,-0.0479 0.5247,-0.0717 0.644,-0.0717 0.9541,0 1.8961,0.5607 2.8264,1.6815 0.5009,0.6203 1.3952,2.1827 2.6833,4.6871 0.0476,0.1194 0.1312,0.1789 0.2506,0.1789 0.2146,0.0238 0.322,-0.0595 0.322,-0.2503 0,-0.0479 -0.0539,-0.1851 -0.161,-0.4116 -0.1074,-0.2265 -0.2089,-0.4533 -0.3042,-0.6798 -0.0955,-0.2264 -0.2506,-0.5547 -0.4651,-0.9839 -0.2146,-0.4294 -0.3994,-0.7752 -0.5545,-1.0374 -0.155,-0.2625 -0.3521,-0.5845 -0.5905,-0.9661 -0.2383,-0.3818 -0.477,-0.6797 -0.7154,-0.8946 l -0.7515,-0.7869 c -0.4053,-0.4056 -0.8824,-0.6919 -1.4309,-0.8589 -0.8827,-0.286 -1.7413,-0.3098 -2.5761,-0.0714 -0.5485,-0.2384 -1.0375,-0.3578 -1.467,-0.3578 -1.6934,0 -2.719,0.6679 -3.0767,2.0036 -0.0717,0.3101 -0.1074,0.6857 -0.1074,1.127 0,0.4411 0.1491,0.8646 0.4473,1.2699 0.2979,0.4057 0.614,0.6203 0.9479,0.6441 1.2166,2.3136 2.2541,4.4008 3.1127,6.2611 0.9542,2.0274 2.0634,3.0413 3.3273,3.0413 0.3339,0 0.6619,-0.0776 0.9839,-0.2327 0.322,-0.155 0.4414,-0.328 0.3578,-0.5187 -0.0834,-0.1908 -0.2563,-0.2265 -0.5188,-0.1075 -0.2622,0.1194 -0.489,0.1789 -0.6797,0.1789 -0.1908,0 -0.3578,-0.0357 -0.5009,-0.1072 -0.811,-0.3815 -1.2164,-1.2044 -1.2164,-2.4686 0,-0.6679 0.0953,-1.2164 0.2863,-1.6458 0.1908,-0.4295 0.4054,-0.8944 0.6438,-1.3955 0.5488,-1.2402 0.8229,-2.2539 0.8229,-3.041 0,-0.7872 -0.2503,-1.5622 -0.7512,-2.3256 -0.5009,-0.7631 -1.0973,-1.3833 -1.7889,-1.8604 z m -1.2167,0.2503 c 1.0497,0.811 1.5744,2.1229 1.5744,3.9357 0,0.7395 -0.0833,1.7532 -0.2506,3.041 -0.1667,1.288 -0.2503,2.1588 -0.2503,2.6118 0,0.4533 0.0119,0.7634 0.0357,0.9303 -1.8127,-3.6255 -2.9335,-5.8317 -3.363,-6.6189 0.5009,0 0.7512,-0.3577 0.7512,-1.0734 0,-1.4072 0.5012,-2.3494 1.5026,-2.8265 z m -2.6832,0.9661 c 0,-0.1432 0.0119,-0.2979 0.036,-0.4652 0.1907,-0.644 0.6318,-0.9657 1.3237,-0.9657 0.2861,0 0.5247,0.0476 0.7155,0.1428 -0.8824,0.5488 -1.3595,1.4431 -1.4312,2.6836 -0.4292,-0.4295 -0.644,-0.8946 -0.644,-1.3955 z m 11.592,3.6136 c -0.334,-0.811 -0.5009,-1.7172 -0.5009,-2.719 0,-0.6678 0.1491,-1.1988 0.4473,-1.5922 0.2982,-0.3935 0.7214,-0.5905 1.2702,-0.5905 2.1705,0 4.1383,2.0395 5.9031,6.118 0.1673,0.3819 0.37,0.5488 0.6084,0.5009 0.0955,-0.0238 0.1431,-0.0833 0.1431,-0.1788 0,-0.0953 -0.2684,-0.7215 -0.805,-1.8783 -0.5366,-1.1568 -1.0792,-2.0931 -1.628,-2.8086 -1.2163,-1.6696 -2.719,-2.5044 -4.5079,-2.5044 -0.9542,0 -1.7651,0.3101 -2.433,0.9301 -0.6678,0.6202 -1.0015,1.4669 -1.0015,2.5404 0,1.0732 0.2563,2.2122 0.7691,3.4166 0.5128,1.2047 1.2104,2.3255 2.0931,3.3633 0.8824,1.0375 1.8961,1.7949 3.041,2.2717 0.5485,0.2387 1.0732,0.358 1.5743,0.358 0.5009,0 0.9658,-0.1431 1.3953,-0.4294 0.4053,-0.334 0.6083,-0.7036 0.6083,-1.1092 0,-1.431 -0.8586,-2.8027 -2.5762,-4.1142 -0.5246,-0.4057 -1.2639,-0.7694 -2.2181,-1.0914 -0.9541,-0.322 -1.6815,-0.483 -2.1826,-0.483 z m 6.0108,5.7246 c 0,0.4767 -0.1907,0.7154 -0.5726,0.7154 -0.6678,0 -1.6815,-0.8229 -3.041,-2.4687 -0.811,-1.0017 -1.5264,-2.1228 -2.1467,-3.363 0.4057,0 0.9959,0.1432 1.7711,0.4292 0.775,0.2863 1.4488,0.6678 2.0214,1.1449 1.3119,1.1211 1.9678,2.3017 1.9678,3.5422 z m 39.5343,-9.5528 c 0,-2.266 0.9184,-3.399 2.755,-3.399 1.7175,0 3.84,1.0139 6.3686,3.0413 2.7666,2.1943 4.6629,4.5079 5.6885,6.9409 1.1687,2.7428 1.7532,5.0802 1.7532,7.0123 0,1.9321 -0.3877,3.3869 -1.163,4.3648 -0.775,0.978 -1.8425,1.4669 -3.202,1.4669 -0.3101,0 -0.6322,-0.0238 -0.9661,-0.0714 -0.5723,-0.1431 -0.9955,-0.2149 -1.2699,-0.2149 -0.2744,0 -0.4116,0.0718 -0.4116,0.2149 0,0.2146 0.2208,0.4173 0.6619,0.608 0.4414,0.1911 0.7753,0.2863 1.0018,0.2863 0.2267,0 0.4116,0 0.5547,0 0.1429,0 0.3101,0 0.5009,0 1.3595,0 2.6056,-0.5366 3.7386,-1.61 1.133,-1.0732 1.8666,-2.6473 2.2005,-4.7226 0.0715,-0.5008 0.1072,-1.0136 0.1072,-1.5383 0,-1.7652 -0.4173,-3.7687 -1.2521,-6.0109 -1.169,-2.9574 -3.1782,-5.474 -6.0287,-7.5489 -2.8502,-2.0753 -5.468,-3.1128 -7.8531,-3.1128 -2.4806,0 -4.0073,1.145 -4.5797,3.4348 -0.1669,0.5961 -0.2503,1.4071 -0.2503,2.433 0,1.0253 0.2503,2.3612 0.7512,4.007 -1.288,-2.1467 -2.9576,-4.4722 -5.0088,-6.9769 -1.1211,-1.3357 -2.266,-2.4446 -3.4347,-3.3273 -1.2402,-0.9301 -2.2899,-1.3952 -3.1485,-1.3952 -1.6934,0 -2.5401,1.0256 -2.5401,3.0767 0,2.4092 1.5622,7.3227 4.6868,14.7407 1.9559,4.7226 2.9339,8.2644 2.9339,10.626 0,1.5264 -0.4592,2.5818 -1.3774,3.1663 -0.9184,0.5842 -2.0098,0.8765 -3.2737,0.8765 -0.5488,0 -1.1211,-0.0596 -1.7175,-0.1789 -4.2217,-0.8586 -7.9665,-3.1365 -11.234,-6.8335 -1.622,-1.8604 -2.7431,-3.6434 -3.3633,-5.349 -0.6202,-1.7053 -0.972,-2.9695 -1.0554,-3.7922 -0.0836,-0.8229 -0.1253,-1.5029 -0.1253,-2.0395 0,-0.5366 0.1012,-1.1508 0.3042,-1.8425 0.2027,-0.6917 0.5545,-1.3357 1.0553,-1.9318 0.9304,-1.0735 2.2303,-1.6101 3.8999,-1.6101 2.7667,0 4.9612,1.4428 6.5832,4.3291 0.8348,1.4788 1.2521,2.8145 1.2521,4.007 0,1.9559 -0.8705,2.9339 -2.6119,2.9339 -0.2863,0 -0.644,-0.0357 -1.0731,-0.1074 -0.4295,-0.0715 -0.6322,-0.0239 -0.6084,0.1431 0.0238,0.167 0.3459,0.3458 0.9661,0.5366 0.6202,0.1911 1.2404,0.2863 1.8604,0.2863 1.2404,0 2.1466,-0.4771 2.7192,-1.4312 0.3578,-0.5961 0.5366,-1.2997 0.5366,-2.1107 0,-0.811 -0.2265,-1.7532 -0.6797,-2.8267 -1.2166,-2.7904 -3.399,-4.8419 -6.5475,-6.1537 -0.8348,-0.3578 -1.6098,-0.5366 -2.3255,-0.5366 -2.3375,0 -4.1978,0.8348 -5.5812,2.5044 -0.9779,1.1449 -1.5981,2.6237 -1.8606,4.4365 -0.0476,0.3577 -0.0714,0.7274 -0.0714,1.1092 0,1.5264 0.3874,3.1782 1.1627,4.9552 0.7753,1.7768 1.8306,3.4288 3.1663,4.9553 1.3357,1.5264 2.7907,2.8026 4.3648,3.8282 1.5744,1.0255 3.2321,1.8842 4.9731,2.5758 1.8128,0.6919 3.4943,1.0375 5.0448,1.0375 1.5503,0 2.9577,-0.2384 4.2217,-0.7155 2.2898,-1.0017 3.4347,-2.9216 3.4347,-5.7603 0,-2.3374 -0.7991,-5.3189 -2.397,-8.9444 -1.0973,-2.4565 -2.1466,-5.0922 -3.1484,-7.9067 -1.4312,-4.0073 -2.1467,-6.6189 -2.1467,-7.8355 0,-0.8586 0.2979,-1.2881 0.8943,-1.2881 0.3102,0 0.6798,0.1432 1.1092,0.4295 1.2881,0.7633 2.6952,2.2062 4.2217,4.3291 1.5264,2.1228 3.1127,4.5915 4.7585,7.406 1.6458,2.8145 2.8145,4.6987 3.5062,5.6529 0.6916,0.9541 1.288,1.4312 1.7889,1.4312 0.1194,0 0.2387,-0.0238 0.3577,-0.0717 0.3102,-0.167 0.4652,-0.489 0.4652,-0.9658 0,-0.4771 -0.0655,-0.9065 -0.1967,-1.2881 -0.1313,-0.3815 -0.7455,-1.9023 -1.8425,-4.5617 -1.0973,-2.6595 -1.7054,-4.4125 -1.8247,-5.2592 -0.1193,-0.847 -0.1791,-1.485 -0.1791,-1.9142 z m 20.6081,3.8282 c -0.3339,-0.811 -0.5009,-1.7172 -0.5009,-2.719 0,-0.6678 0.1491,-1.1988 0.4471,-1.5922 0.2984,-0.3935 0.7217,-0.5905 1.2702,-0.5905 2.1705,0 4.1383,2.0395 5.9034,6.118 0.167,0.3819 0.3696,0.5488 0.6083,0.5009 0.0953,-0.0238 0.1432,-0.0833 0.1432,-0.1788 0,-0.0953 -0.2685,-0.7215 -0.8051,-1.8783 -0.5366,-1.1568 -1.0794,-2.0931 -1.6279,-2.8086 -1.2164,-1.6696 -2.7193,-2.5044 -4.5082,-2.5044 -0.9539,0 -1.7649,0.3101 -2.4327,0.9301 -0.6679,0.6202 -1.0018,1.4669 -1.0018,2.5404 0,1.0732 0.2563,2.2122 0.769,3.4166 0.5131,1.2047 1.2107,2.3255 2.0931,3.3633 0.8825,1.0375 1.8964,1.7949 3.0413,2.2717 0.5485,0.2387 1.0732,0.358 1.5741,0.358 0.5009,0 0.9661,-0.1431 1.3952,-0.4294 0.4057,-0.334 0.6083,-0.7036 0.6083,-1.1092 0,-1.431 -0.8586,-2.8027 -2.5761,-4.1142 -0.5247,-0.4057 -1.2639,-0.7694 -2.2181,-1.0914 -0.9541,-0.322 -1.6815,-0.483 -2.1824,-0.483 z m 6.0106,5.7246 c 0,0.4767 -0.1908,0.7154 -0.5723,0.7154 -0.6679,0 -1.6815,-0.8229 -3.0413,-2.4687 -0.8107,-1.0017 -1.5265,-2.1228 -2.1467,-3.363 0.4057,0 0.9961,0.1432 1.7711,0.4292 0.7753,0.2863 1.4491,0.6678 2.0217,1.1449 1.3116,1.1211 1.9675,2.3017 1.9675,3.5422 z m 22.0034,-14.8479 c -1.8604,0 -3.6434,0.3637 -5.3487,1.091 -1.7056,0.7277 -3.0651,1.7949 -4.0788,3.2023 -1.0137,1.4072 -1.6276,2.9458 -1.8425,4.6154 -0.0953,0.7155 -0.1432,1.5027 -0.1432,2.3613 0,0.8586 0.1075,1.9916 0.3221,3.3987 0.2148,1.4074 0.6857,2.9339 1.4133,4.5797 0.7274,1.6458 1.5919,3.1008 2.5937,4.365 -0.4053,1.5979 -0.608,3.0708 -0.608,4.4184 0,1.3476 0.155,2.6059 0.4651,3.7746 0.0477,0.1908 0.125,0.328 0.2325,0.4113 0.1074,0.0836 0.1848,0.1253 0.2324,0.1253 0.2387,0 0.3101,-0.292 0.2149,-0.8765 -0.0955,-0.5845 -0.1432,-1.4193 -0.1432,-2.5044 0,-1.0854 0.1548,-2.4627 0.4649,-4.1323 1.9083,2.4568 4.1505,4.2457 6.7264,5.3665 1.9797,0.8586 4.0549,1.2881 6.2254,1.2881 0.6202,0 1.2643,-0.0357 1.9318,-0.1072 3.6734,-0.4056 6.154,-1.8127 7.4418,-4.2219 0.525,-1.0017 0.7872,-2.0392 0.7872,-3.1127 0,-1.0732 -0.2503,-2.1824 -0.7512,-3.3273 -1.0497,-2.2898 -2.8505,-3.9833 -5.4025,-5.0805 -1.6458,-0.7155 -3.4467,-1.0732 -5.4026,-1.0732 -0.8348,0 -1.6815,0.0595 -2.5401,0.1788 -4.2696,0.6202 -7.2272,2.6476 -8.873,6.0823 -0.5723,-0.811 -1.1628,-2.1705 -1.7708,-4.0788 -0.6083,-1.908 -0.9601,-3.3749 -1.0554,-4.4007 -0.0955,-1.0256 -0.1434,-1.8842 -0.1434,-2.5759 0,-0.6916 0.0479,-1.4074 0.1434,-2.1467 0.1667,-1.3118 0.6676,-2.4984 1.5027,-3.56 0.8345,-1.0613 1.9496,-1.8006 3.3451,-2.2181 1.3953,-0.4175 2.6059,-0.6262 3.6312,-0.6262 3.3154,0 6.1421,0.6917 8.4796,2.0753 1.4071,0.8348 2.5103,1.7827 3.3094,2.8443 0.7991,1.0612 1.6518,2.5222 2.558,4.3829 0.1432,0.3098 0.2923,0.4172 0.4473,0.3217 0.1551,-0.0952 0.1491,-0.3217 -0.0178,-0.6797 -0.9066,-1.8366 -1.7473,-3.2913 -2.5223,-4.3648 -0.7753,-1.0732 -1.8306,-2.0753 -3.1666,-3.0053 -2.6714,-1.8607 -5.5573,-2.7907 -8.6581,-2.7907 z m -5.3666,21.9676 c 1.6934,-4.3174 5.2234,-6.4757 10.5903,-6.4757 3.0291,0 5.4561,0.8467 7.2807,2.5401 1.8247,1.6934 2.7369,3.6136 2.7369,5.7603 0,2.1467 -0.9301,3.8163 -2.7907,5.0088 -1.3833,0.8824 -3.0886,1.3238 -5.1163,1.3238 -2.0273,0 -4.0666,-0.5842 -6.1177,-1.7532 -2.5761,-1.5027 -4.7704,-3.6375 -6.5832,-6.4041 z m 30.1249,-8.6584 c -0.4294,-0.4292 -1.0374,-1.4012 -1.8246,-2.9157 -0.7872,-1.5148 -1.2583,-2.6476 -1.4134,-3.399 -0.155,-0.7512 -0.2324,-1.3595 -0.2324,-1.8247 0,-0.4652 0.1788,-0.6976 0.5366,-0.6976 0.4532,0 1.0136,0.4173 1.6815,1.2521 0.9779,1.2166 1.944,2.8029 2.8981,4.7585 0.0953,0.2149 0.2027,0.3339 0.322,0.3577 0.1908,0.0717 0.2861,0 0.2861,-0.2146 0,-0.1193 -0.0358,-0.2622 -0.1072,-0.4294 -2.1943,-4.4362 -4.043,-6.6546 -5.5457,-6.6546 -0.6916,0 -1.2521,0.3339 -1.6815,1.0017 -0.2146,0.3581 -0.322,0.8348 -0.322,1.4312 0,0.5962 0.1193,1.3238 0.3577,2.1824 -1.908,-3.0767 -3.5538,-4.6153 -4.9371,-4.6153 -0.3818,0 -0.7276,0.1193 -1.0378,0.3577 -0.7154,0.5009 -1.0731,1.3598 -1.0731,2.5761 0,2.3375 1.0136,4.7106 3.041,7.1198 1.1449,1.3357 2.5523,2.2062 4.2219,2.6119 0.453,0.119 0.8824,0.1788 1.2878,0.1788 1.0973,0 2.0276,-0.3815 2.7907,-1.1449 0.2386,-0.2625 0.3101,-0.5128 0.2148,-0.7515 -0.0955,-0.2384 -0.2982,-0.3339 -0.6083,-0.286 -0.2625,0.8586 -0.8348,1.2881 -1.7172,1.2881 -1.0259,0 -2.2898,-0.811 -3.7925,-2.433 -0.8586,-0.9541 -1.6577,-2.0752 -2.3972,-3.363 -0.9301,-1.5506 -1.3953,-2.7907 -1.3953,-3.7211 0,-0.9303 0.2983,-1.3954 0.8944,-1.3954 1.4312,0 3.3035,2.1945 5.6171,6.5831 0.4533,0.8827 0.8348,1.4848 1.1449,1.8068 0.3101,0.3221 0.7036,0.4831 1.1807,0.4831 0.0955,0 0.3398,-0.0358 0.7333,-0.1072 0.3937,-0.0717 0.686,-0.0836 0.8767,-0.036 z m 6.4401,4.6511 c 0,-1.0732 -0.6798,-2.0869 -2.0393,-3.041 0.4771,-0.0238 1.1149,-0.0357 1.914,-0.0357 0.7991,0 1.8068,0.0595 3.0234,0.1788 0.0476,-0.0717 0.0714,-0.2625 0.0714,-0.5726 0,-0.3101 -0.1431,-0.769 -0.4294,-1.3773 -0.286,-0.6083 -0.5426,-1.133 -0.769,-1.5741 -0.2265,-0.4413 -0.4414,-0.8589 -0.6441,-1.2523 -0.2027,-0.3935 -0.4294,-0.8765 -0.6797,-1.4491 -0.2506,-0.5723 -0.4592,-1.0973 -0.6262,-1.5741 -0.5964,-1.8127 -0.5009,-2.7193 0.2863,-2.7193 1.0018,0 2.4806,1.9917 4.4362,5.9752 0.167,0.3098 0.3042,0.4291 0.4116,0.3577 0.1074,-0.0717 0.161,-0.1613 0.161,-0.2684 0,-0.1075 -0.155,-0.4771 -0.4651,-1.1092 -0.3102,-0.6319 -0.6441,-1.2818 -1.0018,-1.9497 -0.3577,-0.6681 -0.9184,-1.4431 -1.6815,-2.3258 -0.9065,-1.097 -1.7771,-1.6455 -2.6119,-1.6455 -0.9303,0 -1.5743,0.5604 -1.9321,1.6815 -0.0714,0.2146 -0.1071,0.5366 -0.1071,0.966 0,0.4292 0.1372,1.0018 0.4113,1.7173 0.2744,0.7154 0.7098,1.5859 1.3059,2.6118 0.5964,1.0256 0.9303,1.6277 1.0018,1.8068 0.0717,0.1789 0.1074,0.3518 0.1074,0.5187 0,0.7393 -0.9541,1.1331 -2.8621,1.1807 l -0.4295,-1.1449 c -1.5026,-3.9357 -2.9457,-6.5713 -4.329,-7.907 -0.2387,-0.2146 -0.3578,-0.1431 -0.3578,0.2146 0,0.0717 0.0238,0.155 0.0715,0.2506 1.3356,1.7651 2.4925,3.852 3.4704,6.2611 0.978,2.4089 1.6577,4.6987 2.0393,6.8692 0.1431,0.7396 0.477,1.1092 1.002,1.1092 0.5247,0 0.9062,-0.3339 1.1446,-1.0017 0.0717,-0.2146 0.1075,-0.4652 0.1075,-0.7515 z m 6.0823,-8.837 c -0.334,-0.811 -0.5009,-1.7172 -0.5009,-2.719 0,-0.6678 0.1488,-1.1988 0.447,-1.5922 0.2982,-0.3935 0.7217,-0.5905 1.2702,-0.5905 2.1705,0 4.1383,2.0395 5.9034,6.118 0.167,0.3819 0.3697,0.5488 0.6081,0.5009 0.0955,-0.0238 0.1431,-0.0833 0.1431,-0.1788 0,-0.0953 -0.2681,-0.7215 -0.805,-1.8783 -0.5366,-1.1568 -1.0792,-2.0931 -1.6277,-2.8086 -1.2166,-1.6696 -2.7192,-2.5044 -4.5082,-2.5044 -0.9538,0 -1.7648,0.3101 -2.4327,0.9301 -0.6678,0.6202 -1.0017,1.4669 -1.0017,2.5404 0,1.0732 0.2562,2.2122 0.769,3.4166 0.5131,1.2047 1.2107,2.3255 2.0931,3.3633 0.8824,1.0375 1.8961,1.7949 3.041,2.2717 0.5488,0.2387 1.0735,0.358 1.5744,0.358 0.5008,0 0.966,-0.1431 1.3952,-0.4294 0.4056,-0.334 0.6083,-0.7036 0.6083,-1.1092 0,-1.431 -0.8586,-2.8027 -2.5761,-4.1142 -0.5247,-0.4057 -1.264,-0.7694 -2.2181,-1.0914 -0.9542,-0.322 -1.6816,-0.483 -2.1824,-0.483 z m 6.0105,5.7246 c 0,0.4767 -0.1907,0.7154 -0.5723,0.7154 -0.6681,0 -1.6818,-0.8229 -3.0413,-2.4687 -0.811,-1.0017 -1.5264,-2.1228 -2.1466,-3.363 0.4056,0 0.9958,0.1432 1.771,0.4292 0.7753,0.2863 1.4491,0.6678 2.0214,1.1449 1.3119,1.1211 1.9678,2.3017 1.9678,3.5422" /><path
       id="path24"
       style="fill:#ffffff;fill-opacity:1;fill-rule:evenodd;stroke:none"
       d="m 122.4485,351.6718 c 0.0354,-0.0241 0.8016,-0.1522 0.3237,-3.1961 -0.868,-5.5272 -7.0027,-15.7152 -6.302,-23.4977 1.1092,-12.3217 2.1645,-18.0457 0.7727,-30.8946 -0.4705,-4.3472 -1.9871,-11.9321 1.4346,-13.9748 7.4223,-4.4302 10.5106,15.1733 11.647,20.8902 0.69,3.4719 1.0914,13.1415 2.0753,15.092 1.6469,3.2641 7.6895,4.5014 12.386,4.1085 4.6516,-0.3895 8.706,-2.1467 12.4531,-4.0382 3.8943,-1.9661 6.9197,-4.0247 10.6779,-5.9001 10.2619,-5.1207 12.1895,-5.3552 18.6885,-14.9697 2.1489,-3.1796 4.3282,-7.5957 6.4128,-10.2708 2.8038,-3.5986 9.9981,-3.1997 7.653,3.0869 -1.5676,4.2035 -3.8702,8.0351 -5.2982,11.8545 1.8994,-1.2965 7.5563,-7.916 9.4552,-10.6135 2.2215,-3.1541 6.3836,-10.3291 11.6039,-5.0881 0.466,3.092 -0.811,4.7454 -2.0361,6.6843 l -6.9931,10.1092 c -1.2104,1.6141 -2.7028,3.225 -3.7321,5.0851 4.2931,-1.8581 10.5001,-9.6936 16.4237,-5.6534 1.3495,5.1202 -5.0741,8.7176 -8.2917,10.6886 -3.1436,1.9258 -9.6117,5.8532 -11.482,8.2465 3.1933,-0.9329 8.767,-5.7892 10.4063,-0.9014 0.03,1.8182 -13.919,11.1796 -15.3048,12.1382 -5.4615,3.7786 -11.5061,6.7142 -17.4144,10.2345 -6.1475,3.6621 -11.266,7.0986 -16.715,10.9378 -5.9157,4.1675 -15.5654,17.6513 -18.4258,25.6465 -7.1782,-1.5631 -23.6554,4.3543 -29.6958,-0.3456 l -2.8303,-2.3604 c -0.0536,-0.0482 12.1875,-23.0219 12.1076,-23.0984" /><path
       id="path26"
       style="fill:#ffffff;fill-opacity:1;fill-rule:evenodd;stroke:none"
       d="m 215.062,219.3968 c 2.2054,0.7219 13.3943,-3.492 15.1095,-2.143 1.5024,1.1826 5.8102,-0.2058 7.1232,0.8606 1.1492,0.9334 3.8412,3.6912 5.1486,4.5748 -1.5066,0.561 -15.1983,13.9051 -14.982,15.6818 0.8314,6.8307 5.9199,10.4256 3.7503,18.8635 -1.7547,6.8235 -0.0241,12.9764 -0.224,17.6139 -0.2809,6.5259 -10.3016,0.7251 -9.4396,-12.0807 1.1126,-16.5192 -16.2142,-5.8836 -21.8047,-3.0739 -5.1795,2.6028 -7.1453,4.051 -10.0216,8.3069 -1.1631,1.7212 -2.467,3.8384 -3.5932,5.783 -1.2342,2.1302 -2.6776,3.8877 -5.4436,2.1713 -0.7549,-4.5272 2.8094,-8.2428 3.9639,-11.482 -0.9717,1.1639 -2.3839,2.1762 -3.2831,3.3823 -1.2685,1.7014 -4.1694,6.3901 -5.6877,7.4957 -0.6097,0.4439 -1.5211,0.8163 -2.5594,0.8169 -6.357,0.005 1.8516,-9.9306 3.3163,-12.4041 -2.3786,1.4255 -4.8478,3.6623 -7.6638,1.5673 -0.6026,-3.085 1.7884,-4.3773 3.6292,-5.6078 1.3292,-0.8884 4.7917,-2.8267 5.667,-3.8625 -1.9051,0.1973 -3.4211,0.5987 -2.9466,-1.9828 0.2503,-1.3632 1.0602,-1.6759 2.1773,-2.4531 8.441,-5.8743 12.6043,-6.5773 17.7463,-9.8615 4.2302,-2.7023 7.164,-4.9467 10.5826,-8.0838 2.5671,-2.3551 8.4158,-9.1727 9.4351,-14.0828" /><path
       id="path28"
       style="fill:#f20066;fill-opacity:1;fill-rule:evenodd;stroke:none"
       d="m 254.9656,242.9461 h 111.3982 v -2.1393 H 254.9656 Z" /><path
       id="path30"
       style="fill:#f20066;fill-opacity:1;fill-rule:evenodd;stroke:none"
       d="m 621.7197,242.8461 h 112.3194 v -2.1393 H 621.7197 Z" /></g></svg>